<svg width="200" height="200" viewBox="0 0 200 200" fill="none" xmlns="http://www.w3.org/2000/svg">
<g clip-path="url(#clip0_2_1420)">
<path d="M99.9987 200C155.227 200 199.999 155.228 199.999 100C199.999 44.7715 155.227 0 99.9987 0C44.7702 0 -0.00134277 44.7715 -0.00134277 100C-0.00134277 155.228 44.7702 200 99.9987 200Z" fill="#008799"/>
<path d="M80.772 148.544C58.476 148.544 40.252 130.324 40.252 108.024C40.252 92.2003 49.364 78.2923 62.788 71.8203V57.1963C41.928 64.6283 26.824 84.5283 26.824 108.024C26.824 137.756 51.04 161.972 80.772 161.972C104.268 161.972 124.168 146.868 131.6 126.008H116.976C110.504 139.436 96.596 148.544 80.772 148.544Z" fill="#FCFBFF"/>
<path d="M153.36 95.6686V79.2575C158.963 80.6598 163.367 82.4595 163.367 87.2643C163.367 91.6685 159.564 94.8706 153.36 95.6686ZM145.757 110.878H153.764V104.674C165.57 103.271 173.177 96.4666 173.177 87.261C173.177 74.4526 162.969 71.6512 153.363 69.8482V52.836C157.968 53.2367 162.969 54.6357 167.574 56.8395V46.8325C163.17 45.2298 158.368 44.2314 153.764 44.0311V38.0276H145.757V44.0311C133.55 45.4335 126.544 52.2383 126.544 60.8429C126.544 73.8516 136.551 76.8534 146.158 78.6564V95.6686C140.354 94.8672 134.151 92.4665 126.945 88.6634V99.2714C133.149 102.273 139.553 104.277 145.757 104.674V110.878ZM146.158 69.0502C140.555 67.8481 136.351 65.8481 136.351 60.8429C136.351 56.2384 139.954 53.437 146.158 52.836V69.0468V69.0502Z" fill="#FCFBFF"/>
<path d="M77.6328 104.136H68.1248L89.4889 44.7683H99.8375L121.202 104.136H111.694L94.9096 55.5518H94.4458L77.6328 104.136ZM79.2271 80.8873H110.07V88.4241H79.2271V80.8873Z" fill="#FCFBFF"/>
</g>
<defs>
<clipPath id="clip0_2_1420">
<rect width="200" height="200" fill="white"/>
</clipPath>
</defs>
</svg>
