<svg width="200" height="200" viewBox="0 0 200 200" fill="none" xmlns="http://www.w3.org/2000/svg">
<g clip-path="url(#clip0_2_1369)">
<path d="M99.9996 200C155.228 200 200 155.229 200 100C200 44.7718 155.228 0.000244141 99.9996 0.000244141C44.7712 0.000244141 -0.000366211 44.7718 -0.000366211 100C-0.000366211 155.229 44.7712 200 99.9996 200Z" fill="#4EEAFF"/>
<path d="M94.0748 154.004C71.7788 154.004 53.5548 135.784 53.5548 113.484C53.5548 97.6601 62.6668 83.7521 76.0908 77.2801V62.6561C55.2308 70.0881 40.1268 89.9881 40.1268 113.484C40.1268 143.216 64.3428 167.432 94.0748 167.432C117.571 167.432 137.471 152.328 144.903 131.468H130.279C123.807 144.896 109.899 154.004 94.0748 154.004Z" fill="#070010"/>
<path d="M110.703 88.7961H144.239L147.263 78.7121H107.675C107.423 77.2001 107.423 75.9401 107.423 74.4241C107.423 72.9081 107.423 71.4001 107.675 69.8841H150.035L153.059 59.8001H110.447C114.987 49.9681 124.315 44.1681 136.923 44.1681C143.731 44.1681 150.287 45.9321 156.339 49.2121L159.867 37.8641C153.059 34.3361 144.991 32.5681 136.923 32.5681C118.011 32.5681 103.135 43.4121 97.5906 59.5481H86.4946L83.4706 69.1281H95.5746C95.3226 70.8921 95.3226 72.6561 95.3226 74.4241C95.3226 76.1921 95.3226 77.7001 95.5746 79.4681H86.4986L83.4746 89.0481H97.8466C103.143 105.184 117.767 115.776 136.675 115.776C144.995 115.776 152.811 113.508 159.367 109.472V96.3601C153.063 101.152 145.499 104.176 136.927 104.176C124.823 104.176 115.243 98.3761 110.703 88.7961Z" fill="#070010"/>
</g>
<defs>
<clipPath id="clip0_2_1369">
<rect width="200" height="200" fill="white"/>
</clipPath>
</defs>
</svg>
