<svg width="200" height="200" viewBox="0 0 200 200" fill="none" xmlns="http://www.w3.org/2000/svg">
<g clip-path="url(#clip0_2_1374)">
<path d="M100 200C155.228 200 200 155.228 200 100C200 44.7715 155.228 0 100 0C44.7715 0 0 44.7715 0 100C0 155.228 44.7715 200 100 200Z" fill="#FF5FFA"/>
<path d="M98.1305 153.017C75.8345 153.017 57.6105 134.797 57.6105 112.497C57.6105 96.6726 66.7225 82.7646 80.1465 76.2926V61.6686C59.2865 69.1006 44.1825 89.0006 44.1825 112.497C44.1825 142.229 68.3985 166.445 98.1305 166.445C121.626 166.445 141.526 151.341 148.958 130.481H134.334C127.862 143.909 113.954 153.017 98.1305 153.017Z" fill="#070010"/>
<path d="M110.701 33.7437L129.842 76.8687L121.053 81.8296L97.7324 33.7437H110.701ZM123.748 76.7515L142.811 33.7437H155.779L132.459 81.8296L123.748 76.7515ZM132.693 71.6733V113.744H120.662V71.6733H132.693ZM149.646 73.4312V81.3218H103.318V73.4312H149.646ZM149.646 88.8999V96.7905H103.318V88.8999H149.646Z" fill="#070010"/>
</g>
<defs>
<clipPath id="clip0_2_1374">
<rect width="200" height="200" fill="white"/>
</clipPath>
</defs>
</svg>
