<svg width="200" height="200" viewBox="0 0 200 200" fill="none" xmlns="http://www.w3.org/2000/svg">
<g clip-path="url(#clip0_2_1410)">
<path d="M100 200C155.228 200 200 155.228 200 100C200 44.7715 155.228 0 100 0C44.7715 0 0 44.7715 0 100C0 155.228 44.7715 200 100 200Z" fill="#B781FE"/>
<path d="M104.01 102.96V74.1649H95.271V66.9941H104.01V57.8064H95.271V50.6355H104.01V22.9604H115.663L126.307 50.6355H139.529V22.9604H148.38V50.6355H157.12V57.8064H148.38V66.9941H157.12V74.1649H148.38V102.96H136.616L125.971 74.1649H112.75V102.96H104.01ZM112.526 50.6355H117.232L112.526 36.742H112.078L112.526 50.6355ZM112.75 66.9941H123.282L119.921 57.8064H112.526L112.75 66.9941ZM132.246 66.9941H139.753L139.529 57.8064H128.884L132.246 66.9941ZM139.529 87.1621H139.977L139.641 74.1649H134.935L139.529 87.1621Z" fill="#070010"/>
<path d="M96.8315 152.55C74.5355 152.55 56.3115 134.33 56.3115 112.03C56.3115 96.2064 65.4235 82.2984 78.8475 75.8264V61.2024C57.9875 68.6344 42.8835 88.5344 42.8835 112.03C42.8835 141.762 67.0995 165.978 96.8315 165.978C120.327 165.978 140.227 150.874 147.659 130.014H133.035C126.563 143.442 112.655 152.55 96.8315 152.55Z" fill="#070010"/>
</g>
<defs>
<clipPath id="clip0_2_1410">
<rect width="200" height="200" fill="white"/>
</clipPath>
</defs>
</svg>
