<svg width="200" height="200" viewBox="0 0 200 200" fill="none" xmlns="http://www.w3.org/2000/svg">
<g clip-path="url(#clip0_2_1363)">
<path d="M99.9987 200C155.227 200 199.999 155.229 199.999 100C199.999 44.7719 155.227 0.000366211 99.9987 0.000366211C44.7702 0.000366211 -0.00134277 44.7719 -0.00134277 100C-0.00134277 155.229 44.7702 200 99.9987 200Z" fill="#23CC00"/>
<path d="M90.6141 154.005C68.3181 154.005 50.0941 135.785 50.0941 113.485C50.0941 97.6606 59.2061 83.7526 72.6301 77.2806V62.6566C51.7701 70.0886 36.6661 89.9886 36.6661 113.485C36.6661 143.217 60.8821 167.433 90.6141 167.433C114.11 167.433 134.01 152.329 141.442 131.469H126.818C120.346 144.897 106.438 154.005 90.6141 154.005Z" fill="#FFEF43"/>
<path d="M93.3504 84.5846H94.2944C95.9504 84.5846 97.8424 84.3486 99.2584 84.3486L109.186 114.137H122.19L108.95 81.2726C115.098 77.9646 119.59 70.3966 119.59 60.9406C119.59 46.9926 110.842 39.4246 94.0584 39.4246H81.5264V114.133H93.3464V84.5806L93.3504 84.5846ZM93.3504 49.5926H95.2424C103.99 49.5926 107.774 53.3766 107.774 62.1246C107.774 70.8726 103.99 74.6566 95.2424 74.6566H93.3504V49.5966V49.5926Z" fill="#FFEF43"/>
<path d="M148.671 72.0526L151.035 51.4846C153.871 52.1926 156.947 53.6126 160.019 55.7406V43.9206C157.655 42.5006 155.055 41.5566 152.455 41.0846L153.639 32.5726H145.599L144.891 40.6126C133.543 41.5566 126.451 49.8326 126.451 61.1806C126.451 72.5286 133.071 78.6766 140.399 81.5126L138.035 101.609C134.727 100.665 130.943 99.0086 126.687 96.4086V108.465C129.995 110.121 133.307 111.537 136.379 112.249L135.195 120.997H143.235L144.179 112.957C155.527 112.249 163.331 103.501 163.331 91.9166C163.331 83.1686 159.075 75.8406 148.671 72.0566V72.0526ZM142.287 69.9246C138.503 68.0326 136.851 64.9606 136.851 60.7046C136.851 55.0286 139.451 51.4846 144.651 50.7766L142.287 69.9286V69.9246ZM144.415 102.553L146.779 83.4006C150.563 85.2926 152.927 88.1286 152.927 92.6206C152.927 98.0566 150.091 102.077 144.415 102.549V102.553Z" fill="#FFEF43"/>
</g>
<defs>
<clipPath id="clip0_2_1363">
<rect width="200" height="200" fill="white"/>
</clipPath>
</defs>
</svg>
