<svg width="200" height="200" viewBox="0 0 200 200" fill="none" xmlns="http://www.w3.org/2000/svg">
<g clip-path="url(#clip0_2_1360)">
<path d="M100.001 200C155.229 200 200.001 155.229 200.001 100C200.001 44.7719 155.229 0.000366211 100.001 0.000366211C44.7723 0.000366211 0.000793457 44.7719 0.000793457 100C0.000793457 155.229 44.7723 200 100.001 200Z" fill="#23CC00"/>
<path d="M99.641 167.492C123.137 167.492 143.037 152.388 150.469 131.528H135.845C129.373 144.956 115.465 154.064 99.641 154.064C77.345 154.064 59.121 135.844 59.121 113.544C59.121 97.7203 68.233 83.8123 81.657 77.3403V62.7163C60.797 70.1483 45.693 90.0483 45.693 113.544C45.693 143.276 69.909 167.492 99.641 167.492ZM130.569 101.56V81.9003C137.281 83.5803 142.557 85.7363 142.557 91.4923C142.557 96.7683 138.001 100.604 130.569 101.56ZM121.461 119.78H131.053V112.348C145.197 110.668 154.309 102.516 154.309 91.4883C154.309 76.1443 142.081 72.7883 130.573 70.6283V50.2483C136.089 50.7283 142.081 52.4043 147.597 55.0443V43.0563C142.321 41.1363 136.569 39.9403 131.053 39.7003V32.5083H121.461V39.7003C106.837 41.3803 98.445 49.5323 98.445 59.8403C98.445 75.4243 110.433 79.0203 121.941 81.1803V101.56C114.989 100.6 107.557 97.7243 98.925 93.1683V105.876C106.357 109.472 114.029 111.872 121.461 112.348V119.78ZM121.941 69.6723C115.229 68.2323 110.193 65.8363 110.193 59.8403C110.193 54.3243 114.509 50.9683 121.941 50.2483V69.6683V69.6723Z" fill="white"/>
</g>
<defs>
<clipPath id="clip0_2_1360">
<rect width="200" height="200" fill="white"/>
</clipPath>
</defs>
</svg>
