<svg width="200" height="200" viewBox="0 0 200 200" fill="none" xmlns="http://www.w3.org/2000/svg">
<g clip-path="url(#clip0_2_1427)">
<path d="M99.9996 200C155.228 200 200 155.228 200 100C200 44.7715 155.228 0 99.9996 0C44.7712 0 -0.000366211 44.7715 -0.000366211 100C-0.000366211 155.228 44.7712 200 99.9996 200Z" fill="#4EEAFF"/>
<path d="M79.3054 149.016C57.0094 149.016 38.7854 130.796 38.7854 108.496C38.7854 92.6725 47.8974 78.7645 61.3214 72.2925V57.6685C40.4614 65.1005 25.3574 85.0005 25.3574 108.496C25.3574 138.228 49.5734 162.444 79.3054 162.444C102.801 162.444 122.701 147.34 130.133 126.48H115.509C109.037 139.908 95.1294 149.016 79.3054 149.016Z" fill="#070010"/>
<path d="M154.827 94.8486V78.437C160.43 79.8394 164.834 81.6392 164.834 86.4441C164.834 90.8483 161.031 94.0505 154.827 94.8486ZM147.224 110.058H155.231V103.854C167.038 102.452 174.644 95.6466 174.644 86.4408C174.644 73.6321 164.437 70.8306 154.83 69.0275V52.0149C159.435 52.4156 164.437 53.8146 169.041 56.0184V46.0112C164.637 44.4084 159.835 43.4101 155.231 43.2097V37.2061H147.224V43.2097C135.016 44.6121 128.011 51.4172 128.011 60.022C128.011 73.031 138.018 76.0329 147.624 77.836V94.8486C141.821 94.0472 135.617 91.6464 128.411 87.8432V98.4514C134.615 101.453 141.02 103.457 147.224 103.854V110.058ZM147.624 68.2294C142.021 67.0274 137.817 65.0273 137.817 60.022C137.817 55.4174 141.42 52.6159 147.624 52.0149V68.2261V68.2294Z" fill="#070010"/>
<path d="M122.669 63.5295H113.865C113.526 61.6483 112.896 59.9929 111.974 58.5632C111.053 57.1336 109.924 55.9202 108.588 54.9232C107.253 53.9262 105.757 53.1738 104.102 52.6659C102.465 52.158 100.725 51.904 98.8817 51.904C95.5521 51.904 92.5705 52.7411 89.9369 54.4153C87.3221 56.0895 85.2528 58.5444 83.7291 61.78C82.2242 65.0155 81.4717 68.9659 81.4717 73.6312C81.4717 78.334 82.2242 82.3032 83.7291 85.5388C85.2528 88.7744 87.3315 91.2198 89.9651 92.8752C92.5987 94.5306 95.5615 95.3583 98.8535 95.3583C100.678 95.3583 102.409 95.1138 104.045 94.6247C105.701 94.1168 107.196 93.3737 108.532 92.3955C109.868 91.4174 110.996 90.2228 111.918 88.812C112.859 87.3823 113.508 85.7457 113.865 83.9022L122.669 83.9304C122.198 86.7709 121.286 89.3857 119.932 91.7748C118.596 94.145 116.875 96.1955 114.768 97.9261C112.68 99.6379 110.291 100.964 107.601 101.905C104.911 102.845 101.976 103.316 98.797 103.316C93.7932 103.316 89.3349 102.13 85.4221 99.7602C81.5094 97.3712 78.4243 93.9569 76.1669 89.5174C73.9284 85.0779 72.8091 79.7825 72.8091 73.6312C72.8091 67.461 73.9378 62.1656 76.1951 57.7449C78.4525 53.3055 81.5376 49.9006 85.4503 47.5304C89.3631 45.1413 93.812 43.9468 98.797 43.9468C101.863 43.9468 104.723 44.3888 107.375 45.273C110.046 46.1383 112.445 47.4175 114.57 49.1105C116.696 50.7847 118.455 52.8352 119.847 55.2618C121.239 57.6697 122.18 60.4256 122.669 63.5295Z" fill="#070010"/>
</g>
<defs>
<clipPath id="clip0_2_1427">
<rect width="200" height="200" fill="white"/>
</clipPath>
</defs>
</svg>
