<svg width="200" height="200" viewBox="0 0 200 200" fill="none" xmlns="http://www.w3.org/2000/svg">
<g clip-path="url(#clip0_2_1403)">
<path d="M100 200C155.229 200 200 155.228 200 99.9999C200 44.7714 155.229 -0.00012207 100 -0.00012207C44.772 -0.00012207 0.000488281 44.7714 0.000488281 99.9999C0.000488281 155.228 44.772 200 100 200Z" fill="#7005FC"/>
<path d="M97.5076 153.817C75.2116 153.817 56.9876 135.597 56.9876 113.297C56.9876 97.4726 66.0996 83.5646 79.5236 77.0926V62.4686C58.6636 69.9006 43.5596 89.8006 43.5596 113.297C43.5596 143.029 67.7756 167.245 97.5076 167.245C121.004 167.245 140.904 152.141 148.336 131.281H133.712C127.24 144.709 113.332 153.817 97.5076 153.817Z" fill="#FCFBFF"/>
<path d="M105.808 114.397V32.9406H156.321V43.5203H118.098V68.339H152.701V78.879H118.098V114.397H105.808ZM93.6377 100.396V92.1633H130.19V100.396H93.6377Z" fill="#FCFBFF"/>
<path d="M97.5076 153.817C75.2116 153.817 56.9876 135.597 56.9876 113.297C56.9876 97.4726 66.0996 83.5646 79.5236 77.0926V62.4686C58.6636 69.9006 43.5596 89.8006 43.5596 113.297C43.5596 143.029 67.7756 167.245 97.5076 167.245C121.004 167.245 140.904 152.141 148.336 131.281H133.712C127.24 144.709 113.332 153.817 97.5076 153.817Z" fill="#FCFBFF"/>
<path d="M106.15 113.669V33.6687H155.76V44.0593H118.22V68.4343H152.205V78.7859H118.22V113.669H106.15ZM94.197 99.9187V91.8328H130.095V99.9187H94.197Z" fill="#FCFBFF"/>
</g>
<defs>
<clipPath id="clip0_2_1403">
<rect width="200" height="200" fill="white"/>
</clipPath>
</defs>
</svg>
