<svg width="200" height="200" viewBox="0 0 200 200" fill="none" xmlns="http://www.w3.org/2000/svg">
<g clip-path="url(#clip0_2_1379)">
<path d="M100 200C155.228 200 200 155.229 200 100C200 44.7716 155.228 0.00012207 100 0.00012207C44.7715 0.00012207 0 44.7716 0 100C0 155.229 44.7715 200 100 200Z" fill="#FDF6EF"/>
<path d="M30.3429 98.0444C30.3429 99.7924 30.4109 101.524 30.5349 103.24H49.9589C49.7829 101.524 49.6909 99.7924 49.6909 98.0444C49.6909 84.6724 54.8989 72.1004 64.3549 62.6444C68.0509 58.9484 72.2229 55.9044 76.7309 53.5644V32.5444C49.7109 42.0404 30.3389 67.7764 30.3389 98.0404L30.3429 98.0444Z" fill="#DF9806"/>
<path d="M64.355 133.44C56.135 125.22 51.127 114.644 49.959 103.236H30.535C31.555 117.04 36.615 129.716 44.531 140.096H72.567C69.635 138.192 66.883 135.972 64.351 133.44H64.355Z" fill="#176092"/>
<path d="M135.151 133.441C132.623 135.969 129.867 138.193 126.935 140.097H154.971C159.227 134.517 162.655 128.273 165.079 121.549H143.979C141.675 125.873 138.715 129.881 135.151 133.441Z" fill="#186092"/>
<path d="M99.7511 148.104C89.9551 148.104 80.5911 145.308 72.5671 140.096H44.5311C57.2111 156.724 77.2271 167.456 99.7511 167.456C122.275 167.456 142.291 156.724 154.971 140.096H126.935C118.911 145.308 109.547 148.104 99.7511 148.104Z" fill="#C3221A"/>
<path d="M100.385 108.101C98.3415 109.121 94.2535 110.145 89.0175 110.145C76.8815 110.145 67.7455 102.481 67.7455 88.3647C67.7455 74.2487 76.8775 65.7527 90.2295 65.7527C95.5935 65.7527 98.9815 66.9007 100.449 67.6687L99.1095 72.2047C97.0015 71.1847 94.0015 70.4167 90.4215 70.4167C80.3295 70.4167 73.6215 76.8687 73.6215 88.1727C73.6215 98.7127 79.6895 105.485 90.1655 105.485C93.5495 105.485 97.0015 104.781 99.2375 103.697L100.385 108.105V108.101Z" fill="#020202"/>
<path d="M141.646 87.5327C141.646 102.353 132.638 110.209 121.654 110.209C110.67 110.209 102.302 101.393 102.302 88.3647C102.302 74.6967 110.798 65.7527 122.294 65.7527C133.79 65.7527 141.646 74.7607 141.646 87.5327ZM108.242 88.2327C108.242 97.4287 113.226 105.669 121.974 105.669C130.722 105.669 135.77 97.5567 135.77 87.7847C135.77 79.2247 131.298 70.2847 122.038 70.2847C112.778 70.2847 108.242 78.7807 108.242 88.2327Z" fill="#020202"/>
<path d="M147.713 66.9648C150.397 66.5168 153.909 66.1328 158.381 66.1328C163.873 66.1328 167.897 67.4088 170.453 69.7088C172.817 71.7528 174.221 74.8808 174.221 78.7168C174.221 82.5528 173.073 85.6808 170.901 87.9128C167.961 91.0408 163.173 92.6408 157.741 92.6408C156.081 92.6408 154.549 92.5768 153.269 92.2568V109.505H147.713V66.9648ZM153.269 87.7248C154.481 88.0448 156.017 88.1728 157.869 88.1728C164.577 88.1728 168.665 84.9168 168.665 78.9768C168.665 73.0368 164.641 70.5448 158.509 70.5448C156.081 70.5448 154.229 70.7368 153.273 70.9928V87.7288L153.269 87.7248Z" fill="#020202"/>
</g>
<defs>
<clipPath id="clip0_2_1379">
<rect width="200" height="200" fill="white"/>
</clipPath>
</defs>
</svg>
