<svg width="200" height="200" viewBox="0 0 200 200" fill="none" xmlns="http://www.w3.org/2000/svg">
<g clip-path="url(#clip0_2_1415)">
<path d="M100.001 200C155.229 200 200.001 155.228 200.001 100C200.001 44.7715 155.229 0 100.001 0C44.7723 0 0.000793457 44.7715 0.000793457 100C0.000793457 155.228 44.7723 200 100.001 200Z" fill="#82FF68"/>
<path d="M99.0861 103.748C110.78 97.5185 112.966 90.524 110.561 82.218H97.7746V74.1305H107.283C104.66 68.8846 102.146 64.0759 102.146 56.207C102.146 43.9666 112.092 34.0212 127.829 34.0212C144.332 34.0212 154.496 43.748 154.605 60.4693H142.693C142.802 49.759 136.572 44.6223 127.829 44.6223C119.305 44.6223 113.949 49.1032 113.949 56.5349C113.949 63.3109 117.119 68.7753 119.742 74.1305H144.66V82.218H122.802C124.332 89.9775 121.818 97.7371 115.261 103.42H155.589V114.021H99.0861V103.748Z" fill="#070010"/>
<path d="M98.3601 152.55C76.0641 152.55 57.8401 134.33 57.8401 112.03C57.8401 96.2064 66.9521 82.2984 80.3761 75.8264V61.2024C59.5161 68.6344 44.4121 88.5344 44.4121 112.03C44.4121 141.762 68.6281 165.978 98.3601 165.978C121.856 165.978 141.756 150.874 149.188 130.014H134.564C128.092 143.442 114.184 152.55 98.3601 152.55Z" fill="#070010"/>
</g>
<defs>
<clipPath id="clip0_2_1415">
<rect width="200" height="200" fill="white"/>
</clipPath>
</defs>
</svg>
