<svg width="200" height="200" viewBox="0 0 200 200" fill="none" xmlns="http://www.w3.org/2000/svg">
<g clip-path="url(#clip0_2_1395)">
<path d="M99.9987 200C155.227 200 199.999 155.229 199.999 100C199.999 44.7718 155.227 0.000244141 99.9987 0.000244141C44.7702 0.000244141 -0.00134277 44.7718 -0.00134277 100C-0.00134277 155.229 44.7702 200 99.9987 200Z" fill="#8C35FD"/>
<path d="M144.304 90.6204C141.024 97.2604 135.088 101.692 128.388 102.788V54.4404C134.944 55.5124 140.768 59.7764 144.088 66.1804H157.936C153.608 52.7204 142.38 42.8124 128.388 41.4724V32.6044H119.812V41.7324C102.82 44.4324 90.396 59.9204 90.396 78.6204C90.396 97.3204 102.816 112.808 119.812 115.508V125.128H128.388V115.768C142.532 114.412 153.844 104.308 158.072 90.6284H144.304V90.6204ZM103.26 78.6124C103.26 66.3844 110.568 57.4004 119.812 54.8844V102.344C110.572 99.8284 103.26 90.8404 103.26 78.6164V78.6124Z" fill="white"/>
<path d="M95.8761 153.972C73.5801 153.972 55.3561 135.752 55.3561 113.452C55.3561 97.6283 64.4681 83.7203 77.8921 77.2483V62.6243C57.0321 70.0563 41.9281 89.9563 41.9281 113.452C41.9281 143.184 66.1441 167.4 95.8761 167.4C119.372 167.4 139.272 152.296 146.704 131.436H132.08C125.608 144.864 111.7 153.972 95.8761 153.972Z" fill="white"/>
</g>
<defs>
<clipPath id="clip0_2_1395">
<rect width="200" height="200" fill="white"/>
</clipPath>
</defs>
</svg>
