<svg width="200" height="200" viewBox="0 0 200 200" fill="none" xmlns="http://www.w3.org/2000/svg">
<g clip-path="url(#clip0_2_1390)">
<path d="M100 200C155.229 200 200 155.229 200 100C200 44.7716 155.229 0.00012207 100 0.00012207C44.772 0.00012207 0.000427246 44.7716 0.000427246 100C0.000427246 155.229 44.772 200 100 200Z" fill="#7005FC"/>
<path d="M151.445 115.444H165.125L129.501 60.0561L156.957 32.6001H132.645L102.405 62.8361V32.6001H85.2094V115.444H102.405V87.1521L108.521 81.0361L130.585 115.444H144.265L116.529 73.0281L121.493 68.0641L151.445 115.444Z" fill="white"/>
<path d="M88.8254 153.972C66.5294 153.972 48.3054 135.752 48.3054 113.452C48.3054 97.6281 57.4174 83.7201 70.8414 77.2481V62.6241C49.9814 70.0561 34.8774 89.9561 34.8774 113.452C34.8774 143.184 59.0934 167.4 88.8254 167.4C112.321 167.4 132.221 152.296 139.653 131.436H125.029C118.557 144.864 104.649 153.972 88.8254 153.972Z" fill="white"/>
</g>
<defs>
<clipPath id="clip0_2_1390">
<rect width="200" height="200" fill="white"/>
</clipPath>
</defs>
</svg>
