<svg width="200" height="200" viewBox="0 0 200 200" fill="none" xmlns="http://www.w3.org/2000/svg">
<g clip-path="url(#clip0_2_1434)">
<path d="M99.9987 200C155.227 200 199.999 155.228 199.999 99.9998C199.999 44.7713 155.227 -0.000244141 99.9987 -0.000244141C44.7702 -0.000244141 -0.00134277 44.7713 -0.00134277 99.9998C-0.00134277 155.228 44.7702 200 99.9987 200Z" fill="#8C35FD"/>
<path d="M154.398 113.742H140.718L118.966 79.334H132.268L154.398 113.742Z" fill="#FCFBFF"/>
<path d="M95.1404 113.74V33.7402H123.656C129.854 33.7402 134.997 34.8079 139.086 36.9434C143.2 39.0788 146.273 42.0345 148.304 45.8105C150.336 49.5605 151.351 53.8965 151.351 58.8184C151.351 63.7142 150.323 68.0241 148.265 71.7481C146.234 75.446 143.161 78.3236 139.047 80.3809C134.958 82.4382 129.815 83.4668 123.617 83.4668H102.015V73.0762H122.523C126.429 73.0762 129.607 72.5163 132.054 71.3965C134.528 70.2767 136.338 68.6491 137.484 66.5137C138.63 64.3783 139.203 61.8132 139.203 58.8184C139.203 55.7975 138.617 53.1803 137.445 50.9668C136.299 48.7533 134.489 47.0605 132.015 45.8887C129.567 44.6908 126.351 44.0918 122.367 44.0918H107.211V113.74H95.1404Z" fill="#FCFBFF"/>
<path d="M129.217 113.739L137.303 113.739L117.273 82.5652L109.188 82.5652L129.217 113.739Z" fill="#FCFBFF"/>
<path d="M99.7649 153.016C77.4689 153.016 59.2449 134.796 59.2449 112.496C59.2449 96.6725 68.3569 82.7645 81.7809 76.2925V61.6685C60.9209 69.1005 45.8169 89.0005 45.8169 112.496C45.8169 142.228 70.0329 166.444 99.7649 166.444C123.261 166.444 143.161 151.34 150.593 130.48H135.969C129.497 143.908 115.589 153.016 99.7649 153.016Z" fill="#FCFBFF"/>
</g>
<defs>
<clipPath id="clip0_2_1434">
<rect width="200" height="200" fill="white"/>
</clipPath>
</defs>
</svg>
