<svg width="200" height="200" viewBox="0 0 200 200" fill="none" xmlns="http://www.w3.org/2000/svg">
<g clip-path="url(#clip0_2_1400)">
<path d="M99.999 200C155.227 200 199.999 155.229 199.999 100C199.999 44.7716 155.227 0.00012207 99.999 0.00012207C44.7705 0.00012207 -0.000976562 44.7716 -0.000976562 100C-0.000976562 155.229 44.7705 200 99.999 200Z" fill="#CC00C5"/>
<path d="M153.911 62.1123C152.519 60.9283 134.151 62.2803 134.151 62.2803C131.227 62.8523 131.143 60.8883 131.143 60.8883L130.919 59.9123C130.919 59.9123 126.547 33.7483 106.787 32.5643C106.787 32.5643 92.8633 31.9363 80.3313 45.8763C80.3313 45.8763 71.6713 55.5123 69.9033 59.4803C69.2313 60.3803 68.2313 60.9804 67.1193 61.1524C67.1193 61.1524 49.4513 68.1124 47.0273 69.9084C44.6033 71.7044 45.3433 73.7363 45.3433 73.7363C45.3993 76.3563 46.3673 78.8724 48.0793 80.8524C49.7913 82.8324 52.1433 84.1524 54.7273 84.5844C54.7273 84.5844 56.5513 85.2403 62.2593 78.8763L69.2233 72.3443C69.2233 72.3443 74.6833 88.3724 75.5033 89.1524C76.3233 89.9324 77.0753 90.9363 81.1993 90.4603C85.3193 89.9883 90.4153 86.7963 90.7913 82.1043C90.7913 82.1043 91.2233 81.0723 88.7713 78.6923C88.7713 78.6923 77.4113 64.9083 77.1153 64.6003C76.8233 64.2923 76.2953 63.6683 77.3513 62.3603C78.4113 61.0523 88.8513 44.8043 102.415 43.7043C102.415 43.7043 110.395 42.7003 111.871 52.3923C111.871 52.3923 107.931 51.0683 106.831 51.7243C105.731 52.3803 104.951 53.0763 105.315 56.0563V60.9163C105.315 60.9563 105.315 61.0004 105.315 61.0404C105.315 61.5684 105.091 62.8243 102.307 62.2803C102.307 62.2803 83.8873 60.8883 82.5513 62.1123C81.2153 63.3363 81.5633 63.7283 82.7873 65.3563L101.027 89.3483C99.7833 90.2443 98.8153 91.4683 98.2313 92.8883C97.6473 94.3043 97.4753 95.8603 97.7273 97.3683C98.2753 100.652 100.895 102.196 102.799 102.892C104.111 103.372 105.711 102.872 106.903 103.6C107.215 103.792 107.451 104.108 107.499 104.62C107.667 106.416 109.171 112.304 109.087 113.364C109.003 114.424 109.379 114.756 106.791 115.12C104.203 115.48 89.8033 116.4 88.6913 120.896L103.819 121.444C105.787 121.516 107.895 121.756 109.247 123.188C109.931 123.912 110.443 124.78 110.747 125.728L111.219 131.896C111.219 131.896 111.239 132.244 111.219 132.44C111.199 132.636 111.131 132.828 111.019 132.992C110.907 133.156 110.751 133.288 110.571 133.376C110.391 133.464 110.091 133.524 110.091 133.524L108.435 133.608C108.435 133.608 98.2153 134.164 96.4033 139.176L105.227 139.448C107.799 139.528 111.271 139.516 111.927 142.004C111.963 142.144 111.987 142.296 111.999 142.452C112.111 144.484 112.095 147.7 112.095 147.7C112.095 147.7 112.095 148.648 110.259 148.648C108.423 148.648 101.459 150.236 100.903 154.216C100.903 154.216 110.495 154.328 110.651 154.396C111.219 154.592 111.715 154.948 112.083 155.424C112.811 156.368 112.939 157.664 112.827 158.848C112.795 159.176 112.735 159.496 112.647 159.812C112.487 160.384 112.063 161.016 111.723 161.5C111.479 161.844 111.351 162.076 111.207 162.472C110.919 163.252 110.543 164.624 111.087 165.412C112.311 166.804 115.263 167.5 118.203 167.432C121.143 167.364 124.079 166.832 125.303 165.412C126.095 164.272 124.943 161.888 124.943 161.888C124.943 161.888 124.247 160.9 124.051 160.648C123.535 159.532 123.399 158.272 123.675 157.072C123.719 156.472 123.939 155.9 124.303 155.424C124.667 154.948 125.167 154.592 125.735 154.396C125.959 154.328 135.551 154.216 135.551 154.216C134.995 150.204 128.003 148.648 126.195 148.648C124.387 148.648 124.427 147.756 124.427 147.756C124.427 147.756 124.427 144.54 124.523 142.508C124.571 141.492 125.295 140.768 126.011 140.304C126.883 139.736 127.947 139.612 128.987 139.584L140.131 139.292C138.319 134.224 128.099 133.724 128.099 133.724L126.443 133.64C126.443 133.64 126.143 133.576 125.963 133.488C125.783 133.4 125.631 133.268 125.515 133.104C125.403 132.94 125.331 132.748 125.315 132.552C125.295 132.352 125.315 132.012 125.315 132.012L125.563 128.808C125.715 126.836 125.935 124.74 127.291 123.304C128.647 121.872 130.747 121.628 132.715 121.56L147.843 121.012C146.687 116.516 132.291 115.624 129.743 115.232C127.195 114.844 127.527 114.536 127.447 113.48C127.363 112.42 128.839 106.52 129.047 104.736C129.079 104.472 129.159 104.256 129.275 104.088C130.251 102.644 132.627 103.492 134.231 102.816C136.063 102.044 138.307 100.496 138.807 97.4844C139.063 95.9724 138.895 94.4203 138.311 93.0043C137.731 91.5843 136.763 90.3604 135.519 89.4644L153.619 65.4723C154.899 63.7323 155.235 63.3003 153.911 62.1163V62.1123Z" fill="white"/>
</g>
<defs>
<clipPath id="clip0_2_1400">
<rect width="200" height="200" fill="white"/>
</clipPath>
</defs>
</svg>
