<svg width="200" height="200" viewBox="0 0 200 200" fill="none" xmlns="http://www.w3.org/2000/svg">
<g clip-path="url(#clip0_2_1357)">
<path d="M100 200C155.228 200 200 155.229 200 100C200 44.7716 155.228 0.00012207 100 0.00012207C44.7715 0.00012207 0 44.7716 0 100C0 155.229 44.7715 200 100 200Z" fill="#FEDA3F"/>
<path fill-rule="evenodd" clip-rule="evenodd" d="M147.936 52.0765C149.088 59.2125 150.532 66.3125 152.26 73.3405C152.152 73.5925 152.008 73.8085 151.9 74.0605C145.664 77.1965 139.392 80.2965 133.156 83.4325C130.956 78.1685 127.1 74.7445 121.624 73.1605C118.92 72.6925 116.288 72.5125 113.696 72.6205C117.768 64.4405 121.876 56.2565 125.952 48.1125C133.304 49.3005 140.62 50.6005 147.94 52.0765H147.936ZM81.9801 44.3285C87.8201 40.5085 93.5841 36.6165 99.2801 32.6165C99.7841 32.5445 100.252 32.6165 100.72 32.7965C106.668 36.7605 112.544 40.7965 118.38 44.8725C114.92 55.0725 111.496 65.2725 108.108 75.5085C105.008 77.4565 102.304 79.8685 100 82.7165C97.4401 79.7605 94.6281 77.0925 91.5281 74.7885C88.2121 64.8765 84.9321 54.9645 81.6161 45.0525C81.6521 44.7645 81.7961 44.5485 81.9761 44.3325L81.9801 44.3285ZM52.0641 52.0765C59.0561 50.9965 65.9041 49.5525 72.6081 47.7525C73.1481 47.6445 73.6161 47.7525 74.0481 48.1125C78.1201 56.2925 82.2281 64.4405 86.3041 72.6205C77.3281 71.7205 70.8401 75.3245 66.8401 83.4325C60.6041 80.2965 54.3321 77.1965 48.0961 74.0605C47.9881 73.8085 47.8441 73.5925 47.7361 73.3405C49.3561 66.2765 50.8001 59.2125 52.0601 52.0765H52.0641ZM32.6001 100.012C36.4561 93.8125 40.4201 87.6845 44.4961 81.6325C51.5601 83.9765 58.6601 86.2805 65.7601 88.4805C66.1201 93.1645 67.6361 97.4925 70.2641 101.456C71.7401 103.764 73.3641 105.996 75.1281 108.124C65.1441 111.692 55.1241 115.116 45.0321 118.396C40.5641 112.52 36.4161 106.392 32.5961 100.016L32.6001 100.012ZM73.3281 152.276C66.2641 150.656 59.2001 149.212 52.0641 147.952C50.9121 141.32 49.6481 134.724 48.2801 128.128C48.0281 127.408 48.0281 126.688 48.2801 125.964C58.0121 121.064 67.6721 116.16 77.2961 111.188C81.0441 115.152 84.6481 119.26 88.1081 123.444C83.5321 132.996 78.8441 142.476 74.0521 151.916C73.8001 152.024 73.5841 152.168 73.3321 152.276H73.3281ZM100 167.412C93.6921 163.592 87.5641 159.52 81.6201 155.156C84.9001 145.712 88.0001 136.196 90.9921 126.684C93.5521 128.812 96.0721 131.044 98.5601 133.352C99.5321 133.604 100.472 133.604 101.444 133.352C103.824 131.332 106.128 129.172 108.292 126.864C108.58 126.612 108.832 126.684 109.012 127.044C112.184 136.344 115.284 145.644 118.384 154.976C112.508 159.444 106.38 163.592 100.004 167.412H100ZM151.72 128.488C150.388 134.976 149.124 141.464 147.936 147.952C140.944 149.176 133.988 150.512 127.032 151.916C126.564 151.916 126.168 151.772 125.772 151.556C121.052 142.22 116.436 132.848 111.896 123.444C115.392 119.372 118.852 115.264 122.348 111.188C132.152 116.052 141.956 120.992 151.724 125.964C151.976 126.792 151.976 127.66 151.724 128.488H151.72ZM155.504 118.216C145.268 115.08 135.032 111.728 124.868 108.124C129.952 102.5 133.192 95.9405 134.6 88.4805C141.268 86.2445 147.864 83.9765 154.424 81.6325C154.892 81.5605 155.324 81.7045 155.684 81.9925C159.684 87.9405 163.576 93.9605 167.396 100.012C163.576 106.176 159.612 112.232 155.5 118.212L155.504 118.216Z" fill="#010100"/>
</g>
<defs>
<clipPath id="clip0_2_1357">
<rect width="200" height="200" fill="white"/>
</clipPath>
</defs>
</svg>
